<?xml version="1.0" encoding="UTF-8"?>
<svg id="Layer_2" data-name="Layer 2" xmlns="http://www.w3.org/2000/svg" viewBox="0 0 158.1 230.75">
  <defs>
    <style>
      .cls-1 {
        fill: #000;
        stroke-width: 0px;
      }
    </style>
  </defs>
  <g id="Layer_1-2" data-name="Layer 1">
    <g>
      <path class="cls-1" d="M34.33,39.18H0V10.85h32.76c12.78,0,18.1,4.13,18.1,14.16,0,9.25-5.71,14.17-16.53,14.17Z"/>
      <path class="cls-1" d="M34.53,96.62H0v-35.21h34.92c12.2,0,19.67,5.11,19.67,16.52,0,10.63-7.47,18.69-20.06,18.69Z"/>
      <rect class="cls-1" x="117.34" width="40.76" height="74.22"/>
      <polygon class="cls-1" points="48.52 148.47 0 208.94 0 148.47 48.52 148.47"/>
      <path class="cls-1" d="M18.35,230.75l51.7-65.1c3.61,4.71,8.79,8.31,15.34,11.22,9.05,3.98,19.25,6.25,35.05,9.67,15.98,3.41,19.83,8.53,19.83,15.93,0,11.19-9.05,17.82-24.84,17.82-17.14,0-28.12-7.96-28.5-20.86h-25.81c.29,13.91,5.75,24.34,15,31.32H18.35Z"/>
      <path class="cls-1" d="M158.1,99.66v31.64c-7.14-14.73-23.3-24.22-47.29-24.22-19.91,0-33.46,6.56-40.67,17.17H0v-5.4h32.36c32.86,0,48.79-15.14,48.79-38.95,0-18.69-8.85-27.54-19.87-31.67,9.05-3.74,15.94-13.18,15.94-24.4,0-9.71-2.72-17.82-7.99-23.83h18.88v99.66h69.99Z"/>
      <path class="cls-1" d="M136.81,148.42h21.29v30.3c-3.31-3.34-7.4-5.76-11.86-7.73-9.43-4.17-23.49-7.59-37.94-11-14.25-3.41-19.83-7.97-19.83-15.93,0-9.48,7.89-14.79,22.92-14.79,16.17,0,24.07,6.25,25.42,19.15Z"/>
      <path class="cls-1" d="M158.1,226.23v4.52h-4.64c1.7-1.37,3.25-2.87,4.64-4.52Z"/>
    </g>
  </g>
</svg>